<svg width="246" height="235" viewBox="0 0 246 235" fill="none" xmlns="http://www.w3.org/2000/svg">
<g clip-path="url(#clip0_202_2)">
<mask id="mask0_202_2" style="mask-type:alpha" maskUnits="userSpaceOnUse" x="-77" y="-83" width="400" height="400">
<path d="M39.4 25.56C35.88 27.4 33.48 29.8 31.72 33.24C30.2 36.04 30.12 38.12 30.2 67.88C30.28 85.32 30.2 99.64 30.04 99.8C29.88 99.96 29.96 106.68 30.2 114.76L30.6 129.4H33H35.4L35.64 113.96C35.8 101.96 35.64 98.6 34.84 98.6C34.04 98.6 34.04 98.44 34.76 97.96C35.56 97.48 35.8 91.4 35.96 73.8L36.2 50.2H123H209.8L210.04 115.72C210.2 179.64 210.2 181.32 208.6 184.52C205.8 190.44 207.56 190.12 167 190.6L130.6 191L130.36 193.08C129.88 197.08 129.88 197.08 168.28 196.84L204.2 196.6L207.56 194.68C209.48 193.56 211.96 191.32 213.16 189.56L215.4 186.36L215.64 111.24C215.8 38.6 215.8 36.12 214.28 33.16C212.52 29.72 210.04 27.32 206.44 25.48C204.12 24.36 195.96 24.2 122.84 24.2C50.52 24.28 41.56 24.44 39.4 25.56ZM204.84 31.64C207.96 33.64 209.48 36.36 209.64 40.36L209.8 43.8H123H36.2L36.36 40.2C36.6 36.04 38.44 33.16 42.28 31.16C44.84 29.88 49.96 29.8 123.8 29.96C197.64 30.2 202.84 30.28 204.84 31.64Z" fill="black"/>
<path d="M44.28 58.28C43.24 59.24 43 61.56 43 69.88C43 75.64 43.4 81 43.8 81.88C44.6 83.24 45.64 83.4 56.04 83.4C63.88 83.4 67.8 83.08 68.44 82.44C69.08 81.8 69.4 77.88 69.4 70.04C69.4 59.64 69.24 58.6 67.88 57.8C67 57.4 61.64 57 55.88 57C47.56 57 45.24 57.24 44.28 58.28ZM63 70.2V77H56.2H49.4V70.2V63.4H56.2H63V70.2Z" fill="black"/>
<path d="M78.04 57.88C76.76 58.6 76.6 60.04 76.6 70.04C76.6 77.88 76.92 81.8 77.56 82.44C78.2 83.08 82.12 83.4 89.96 83.4C100.36 83.4 101.4 83.24 102.2 81.88C102.6 81 103 75.64 103 69.88C103 61.56 102.76 59.24 101.72 58.28C100.76 57.24 98.52 57 89.96 57C84.12 57 78.76 57.4 78.04 57.88ZM96.6 70.2V77H89.8H83V70.2V63.4H89.8H96.6V70.2Z" fill="black"/>
<path d="M111.16 57.96C110.52 58.6 110.2 62.6 110.2 70.68C110.2 80.68 110.36 82.52 111.48 82.92C113.08 83.56 132.92 83.56 134.52 82.92C135.64 82.52 135.8 80.68 135.8 70.68C135.8 62.6 135.48 58.6 134.84 57.96C133.48 56.6 112.52 56.6 111.16 57.96ZM130.04 70.36L130.28 77H123H115.8V70.2V63.32L122.84 63.56L129.8 63.8L130.04 70.36Z" fill="black"/>
<path d="M144.28 58.28C143.24 59.24 143 61.56 143 69.88C143 75.64 143.4 81 143.8 81.88C144.6 83.24 145.64 83.4 156.04 83.4C163.88 83.4 167.8 83.08 168.44 82.44C169.08 81.8 169.4 77.88 169.4 70.04C169.4 59.64 169.24 58.6 167.88 57.8C167 57.4 161.64 57 155.88 57C147.56 57 145.24 57.24 144.28 58.28ZM163 70.2V77H156.2H149.4V70.2V63.4H156.2H163V70.2Z" fill="black"/>
<path d="M178.04 57.88C176.76 58.6 176.6 60.04 176.6 70.04C176.6 77.88 176.92 81.8 177.56 82.44C178.2 83.08 182.12 83.4 189.96 83.4C200.36 83.4 201.4 83.24 202.2 81.88C202.6 81 203 75.64 203 69.88C203 61.56 202.76 59.24 201.72 58.28C200.76 57.24 198.52 57 189.96 57C184.12 57 178.76 57.4 178.04 57.88ZM196.6 70.2V77H189.8H183V70.2V63.4H189.8H196.6V70.2Z" fill="black"/>
<path d="M43.8 92.12C43.4 93 43 98.36 43 104.12C43 112.44 43.24 114.76 44.28 115.72C45.24 116.76 47.56 117 55.88 117C61.64 117 67 116.6 67.88 116.2C69.24 115.4 69.4 114.36 69.4 103.96C69.4 96.12 69.08 92.2 68.44 91.56C67.8 90.92 63.88 90.6 56.04 90.6C45.64 90.6 44.6 90.76 43.8 92.12ZM63 103.8V110.6H56.2H49.4V103.8V97H56.2H63V103.8Z" fill="black"/>
<path d="M77.56 91.56C76.92 92.2 76.6 96.12 76.6 103.96C76.6 113.64 76.76 115.4 77.88 116.04C78.84 116.6 77.56 116.92 73.48 117.32C52.84 119.4 36.36 132.92 31.48 151.88C29.88 158.12 29.8 168.84 31.4 175C35.56 191.4 48.6 204.44 65 208.6C71.16 210.12 81.88 210.12 88.04 208.52C113.96 201.8 129 173.88 120.2 148.76C117.56 141 114.6 136.52 108.68 130.6C102.44 124.44 93.96 119.88 85.64 118.2L80.2 117.16L90.36 117.08C98.44 117 100.76 116.76 101.72 115.72C102.76 114.76 103 112.44 103 104.12C103 98.36 102.6 93 102.2 92.12C101.4 90.76 100.36 90.6 89.96 90.6C82.12 90.6 78.2 90.92 77.56 91.56ZM96.6 103.8V110.6H89.8H83V103.8V97H89.8H96.6V103.8ZM83.88 124.2C102.12 127.64 116.6 145.08 116.6 163.4C116.52 187.8 94.52 207 70.68 203.4C62.36 202.2 53.32 197.48 47.56 191.48C32.2 175.4 32.44 150.92 48.2 135.24C57.56 125.8 70.84 121.72 83.88 124.2Z" fill="black"/>
<path d="M74.36 137.96C73.72 138.6 73.4 141.72 73.4 146.68C73.4 153.72 73.24 154.52 71.8 155C69.4 155.8 66.92 159.8 66.76 163.24C66.6 168.76 70.92 173.24 76.44 173.16C79.16 173.08 80.28 173.88 88.44 181.48C93.4 186.04 97.64 189.8 97.88 189.8C99.32 189.8 101.4 187.96 101.4 186.6C101.4 185.8 97.88 181.8 93.08 177.24L84.68 169.4L85.64 166.04C86.36 163.24 86.28 162.2 85.16 159.88C84.44 158.36 82.92 156.44 81.8 155.72C79.88 154.52 79.8 154.04 79.8 147.48C79.8 138.76 77.56 134.76 74.36 137.96ZM79 161.4C80.36 163 79.32 166.36 77.32 167C76.12 167.4 75.08 167.08 73.96 165.88C72.52 164.52 72.44 163.96 73.24 162.2C74.28 159.88 77.4 159.48 79 161.4Z" fill="black"/>
<path d="M110.76 91.16C109.72 92.12 110.12 115 111.16 116.04C112.52 117.4 133.48 117.4 134.84 116.04C135.48 115.4 135.8 111.4 135.8 103.32C135.8 93.32 135.64 91.48 134.52 91.08C132.84 90.44 111.4 90.44 110.76 91.16ZM130.04 103.56L129.8 110.2L122.84 110.44L115.8 110.68V103.8V97H123H130.28L130.04 103.56Z" fill="black"/>
<path d="M143.8 92.12C143.4 93 143 98.36 143 104.12C143 112.44 143.24 114.76 144.28 115.72C145.24 116.76 147.56 117 155.88 117C161.64 117 167 116.6 167.88 116.2C169.24 115.4 169.4 114.36 169.4 103.96C169.4 96.12 169.08 92.2 168.44 91.56C167.8 90.92 163.88 90.6 156.04 90.6C145.64 90.6 144.6 90.76 143.8 92.12ZM163 103.8V110.6H156.2H149.4V103.8V97H156.2H163V103.8Z" fill="black"/>
<path d="M177.56 91.56C176.92 92.2 176.6 96.12 176.6 103.96C176.6 114.36 176.76 115.4 178.12 116.2C179 116.6 184.36 117 190.12 117C198.44 117 200.76 116.76 201.72 115.72C202.76 114.76 203 112.44 203 104.12C203 98.36 202.6 93 202.2 92.12C201.4 90.76 200.36 90.6 189.96 90.6C182.12 90.6 178.2 90.92 177.56 91.56ZM196.6 103.8V110.6H189.8H183V103.8V97H189.8H196.6V103.8Z" fill="black"/>
<path d="M110.52 125.32C110.28 125.96 110.2 127.16 110.36 127.96C110.6 129.24 111.8 129.48 120.2 129.8L129.8 130.2V137V143.8L127.08 144.2C123.72 144.68 122.2 146.68 123.8 148.6C124.6 149.56 126.04 149.8 130.12 149.64L135.4 149.4V137V124.6L123.16 124.36C113 124.2 110.92 124.36 110.52 125.32Z" fill="black"/>
<path d="M143.96 125.16C142.6 126.52 142.6 147.48 143.96 148.84C144.6 149.48 148.6 149.8 156.76 149.8C170.76 149.8 169.56 151.24 169.24 135.4L169 124.6L157 124.36C148.28 124.2 144.68 124.44 143.96 125.16ZM163 137V144.28L156.44 144.04L149.8 143.8L149.56 137.88C149.4 134.6 149.48 131.48 149.72 130.84C150.04 130.12 151.96 129.8 156.6 129.8H163V137Z" fill="black"/>
<path d="M177.08 125.48C176.84 126.2 176.6 131.32 176.6 137C176.6 142.68 176.84 147.8 177.08 148.52C177.48 149.64 179.32 149.8 189.32 149.8C197.4 149.8 201.4 149.48 202.04 148.84C203.4 147.48 203.4 126.52 202.04 125.16C201.4 124.52 197.4 124.2 189.32 124.2C179.32 124.2 177.48 124.36 177.08 125.48ZM196.2 137V143.8L189.64 144.04L183 144.28V137V129.72L189.64 129.96L196.2 130.2V137Z" fill="black"/>
<path d="M144.28 158.28C143.24 159.24 143 161.56 143 169.88C143 175.64 143.4 181 143.8 181.88C144.6 183.24 145.64 183.4 156.04 183.4C163.88 183.4 167.8 183.08 168.44 182.44C169.08 181.8 169.4 177.88 169.4 170.04C169.4 159.64 169.24 158.6 167.88 157.8C167 157.4 161.64 157 155.88 157C147.56 157 145.24 157.24 144.28 158.28ZM163 170.2V177H156.2H149.4V170.2V163.4H156.2H163V170.2Z" fill="black"/>
<path d="M178.04 157.88C176.76 158.6 176.6 160.04 176.6 170.04C176.6 177.88 176.92 181.8 177.56 182.44C178.2 183.08 182.12 183.4 189.96 183.4C200.36 183.4 201.4 183.24 202.2 181.88C202.6 181 203 175.64 203 169.88C203 161.56 202.76 159.24 201.72 158.28C200.76 157.24 198.52 157 189.96 157C184.12 157 178.76 157.4 178.04 157.88ZM196.6 170.2V177H189.8H183V170.2V163.4H189.8H196.6V170.2Z" fill="black"/>
</mask>
<g mask="url(#mask0_202_2)">
<rect x="-18.5952" y="-20.3154" width="242.595" height="233.315" fill="url(#paint0_linear_202_2)"/>
</g>
</g>
<defs>
<linearGradient id="paint0_linear_202_2" x1="28.5" y1="30" x2="253.418" y2="253.099" gradientUnits="userSpaceOnUse">
<stop stop-color="#00A3FF"/>
<stop offset="0.9375" stop-color="#00FFC2"/>
</linearGradient>
<clipPath id="clip0_202_2">
<rect width="246" height="235" fill="white"/>
</clipPath>
</defs>
</svg>
